<svg width="31" height="33" viewBox="0 0 31 33" fill="none" xmlns="http://www.w3.org/2000/svg">
<path d="M12.9167 24.75C15.2093 24.7495 17.436 23.9325 19.242 22.429L24.9201 28.4735L26.7465 26.5293L21.0684 20.4847C22.4815 18.562 23.2494 16.1912 23.25 13.75C23.25 7.68488 18.6142 2.75 12.9167 2.75C7.21912 2.75 2.58333 7.68488 2.58333 13.75C2.58333 19.8151 7.21912 24.75 12.9167 24.75ZM12.9167 5.5C17.1908 5.5 20.6667 9.20012 20.6667 13.75C20.6667 18.2999 17.1908 22 12.9167 22C8.64254 22 5.16666 18.2999 5.16666 13.75C5.16666 9.20012 8.64254 5.5 12.9167 5.5Z" fill="white"/>
<path d="M14.7405 11.8057C15.23 12.3282 15.5 13.0185 15.5 13.75H18.0833C18.0845 13.0273 17.9511 12.3116 17.6908 11.6442C17.4305 10.9767 17.0485 10.3708 16.5669 9.8615C14.6113 7.7825 11.2207 7.7825 9.26642 9.8615L11.0903 11.8085C12.0719 10.7662 13.764 10.769 14.7405 11.8057Z" fill="white"/>
</svg>
