<svg width="24" height="26" viewBox="0 0 24 26" fill="none" xmlns="http://www.w3.org/2000/svg">
<path d="M10.2857 0C8.4 0 6.85714 1.4087 6.85714 3.13043H3.42857C1.54286 3.13043 0 4.53913 0 6.26087H24C24 4.53913 22.4571 3.13043 20.5714 3.13043H17.1429C17.1429 1.4087 15.6 0 13.7143 0H10.2857ZM3.42857 9.3913V24.4487C3.42857 24.793 3.70286 25.0435 4.08 25.0435H19.9543C20.3314 25.0435 20.6057 24.793 20.6057 24.4487V9.3913H17.1771V20.3478C17.1771 21.2243 16.4229 21.913 15.4629 21.913C14.5029 21.913 13.7486 21.2243 13.7486 20.3478V9.3913H10.32V20.3478C10.32 21.2243 9.56571 21.913 8.60571 21.913C7.64571 21.913 6.89143 21.2243 6.89143 20.3478V9.3913H3.46286H3.42857Z" fill="#503BD9"/>
</svg>
